<svg width="425" height="234" viewBox="0 0 425 234" fill="none" xmlns="http://www.w3.org/2000/svg">
<path d="M423.975 28.4749C425.342 27.108 425.342 24.892 423.975 23.5251L401.701 1.25126C400.334 -0.11557 398.118 -0.11557 396.751 1.25126C395.384 2.6181 395.384 4.83418 396.751 6.20101L416.55 26L396.751 45.799C395.384 47.1658 395.384 49.3819 396.751 50.7487C398.118 52.1156 400.334 52.1156 401.701 50.7487L423.975 28.4749ZM0.942373 210.837C82.8658 236.806 137.503 238.622 176.611 226.139C215.858 213.612 238.829 186.887 257.816 157.46C267.22 142.885 275.913 127.198 284.896 112.547C293.975 97.7394 303.564 83.6074 315.184 71.3187C338.256 46.9175 369.586 29.5 421.5 29.5V22.5C367.664 22.5 334.494 40.7076 310.097 66.5094C297.982 79.3224 288.095 93.9365 278.928 108.888C269.665 123.997 261.342 139.083 251.934 153.665C233.296 182.551 211.454 207.67 174.483 219.471C137.372 231.316 84.3842 229.944 3.05763 204.164L0.942373 210.837Z" fill="white"/>
</svg>
