<svg width="499" height="212" viewBox="0 0 499 212" fill="none" xmlns="http://www.w3.org/2000/svg">
<path d="M0.791656 26.217C-0.432739 24.7212 -0.212738 22.5161 1.28302 21.2917L25.658 1.33895C27.1537 0.11455 29.3589 0.334538 30.5833 1.83031C31.8077 3.32608 31.5877 5.53121 30.0919 6.75561L8.42529 24.4914L26.161 46.158C27.3854 47.6538 27.1655 49.8589 25.6697 51.0833C24.1739 52.3077 21.9688 52.0877 20.7444 50.5919L0.791656 26.217ZM498.557 201.455C406.036 216.374 341.644 214.301 293.81 202.261C245.873 190.196 214.815 168.183 188.91 143.733C137.087 94.8205 106.87 37.8298 3.15256 27.4827L3.84744 20.5173C110.63 31.1702 143.163 90.9295 193.715 138.642C218.998 162.505 249.033 183.773 295.518 195.473C342.106 207.199 405.464 209.376 497.443 194.545L498.557 201.455Z" fill="white"/>
</svg>
