<?xml version="1.0" encoding="UTF-8" standalone="no"?>
<!DOCTYPE svg PUBLIC "-//W3C//DTD SVG 1.1//EN" "http://www.w3.org/Graphics/SVG/1.1/DTD/svg11.dtd">
<svg width="100%" height="100%" viewBox="0 0 434 434" version="1.1" xmlns="http://www.w3.org/2000/svg" xmlns:xlink="http://www.w3.org/1999/xlink" xml:space="preserve" xmlns:serif="http://www.serif.com/" style="fill-rule:evenodd;clip-rule:evenodd;stroke-linejoin:round;stroke-miterlimit:2;">
    <g>
        <g>
            <g>
                <path d="M258.048,37.658L175.104,37.658C166.621,37.658 159.744,44.535 159.744,53.018L159.744,380.544C159.744,389.027 166.621,395.904 175.104,395.904L258.048,395.904C266.531,395.904 273.408,389.027 273.408,380.544L273.408,53.018C273.408,44.534 266.531,37.658 258.048,37.658Z" style="fill:rgb(29,185,84);fill-rule:nonzero;"/>
                <path d="M418.304,228.634L335.36,228.634C326.877,228.634 320,235.511 320,243.994L320,380.647C320,389.13 326.877,396.007 335.36,396.007L418.304,396.007C426.787,396.007 433.664,389.13 433.664,380.647L433.664,243.994C433.664,235.51 426.787,228.634 418.304,228.634Z" style="fill:rgb(29,185,84);fill-rule:nonzero;"/>
                <path d="M98.304,160.026L15.36,160.026C6.877,160.026 0,166.903 0,175.386L0,380.442C0,388.925 6.877,395.802 15.36,395.802L98.304,395.802C106.787,395.802 113.664,388.925 113.664,380.442L113.664,175.386C113.664,166.903 106.787,160.026 98.304,160.026Z" style="fill:rgb(29,185,84);fill-rule:nonzero;"/>
            </g>
        </g>
    </g>
</svg>
